<?xml version="1.0" encoding="utf-8"?>
<svg height="38" viewBox="0 0 184 38" fill="none" xmlns="http://www.w3.org/2000/svg">
<path d="M18.1502 16.4216C16.3529 16.4216 15.3488 14.7005 15.3488 11.5897C15.3488 8.43162 16.3529 6.75789 18.1502 6.75789C19.9475 6.75789 20.9515 8.45529 20.9515 11.5897C20.9515 14.7478 19.9475 16.4216 18.1502 16.4216ZM18.1502 5.45948C14.4853 5.45948 12.4571 8.2186 12.4571 11.5897C12.4571 14.9609 14.4887 17.72 18.1502 17.72C21.815 17.72 23.8432 14.9609 23.8432 11.5897C23.8466 8.21522 21.815 5.45948 18.1502 5.45948ZM43.6066 5.45948C41.8796 5.45948 40.9224 6.2135 40.3869 7.18055H40.2464V5.69617H37.4919V17.4833H40.2464V9.86528C40.2464 8.12054 41.1333 7.10616 42.5557 7.10616C43.9313 7.10616 44.5404 8.02587 44.5404 9.41557V17.4765H47.2949V9.39529C47.2916 6.96753 46.0331 5.45948 43.6066 5.45948ZM53.5435 5.45948C50.9999 5.45948 49.0855 6.54487 49.0855 8.85428C49.0855 10.812 50.4142 11.8704 51.9103 12.2491L54.2431 12.8374C55.4781 13.1451 56.0403 13.5915 56.0403 14.5822C56.0403 15.7859 55.2003 16.4689 53.731 16.4689C52.1445 16.4689 51.3279 15.6912 51.0702 13.7335L48.5968 14.4402C48.7374 16.4689 50.605 17.7166 53.4264 17.7166C56.5758 17.7166 58.2794 16.2322 58.2794 13.8755C58.2794 11.6607 56.7633 10.741 55.1768 10.3387L52.9378 9.77399C51.8166 9.48996 51.3279 8.97263 51.3279 8.2186C51.3279 7.27523 52.1211 6.71055 53.3126 6.71055C54.7116 6.71055 55.5751 7.48825 55.6922 8.97263L58.025 8.26594C57.7439 6.6125 56.134 5.45948 53.5435 5.45948ZM65.1171 16.4216C63.3198 16.4216 62.3158 14.7005 62.3158 11.5897C62.3158 8.43162 63.3198 6.75789 65.1171 6.75789C66.9144 6.75789 67.9184 8.45529 67.9184 11.5897C67.9151 14.7478 66.9144 16.4216 65.1171 16.4216ZM65.1171 5.45948C61.4523 5.45948 59.424 8.2186 59.424 11.5897C59.424 14.9609 61.4556 17.72 65.1171 17.72C68.7819 17.72 70.8102 14.9609 70.8102 11.5897C70.8102 8.21522 68.7786 5.45948 65.1171 5.45948ZM78.5549 5.45948C76.8279 5.45948 75.8707 6.2135 75.3352 7.18055H75.1946V5.69617H72.4401V17.4833H75.1946V9.86528C75.1946 8.12054 76.0815 7.10616 77.5039 7.10616C78.8795 7.10616 79.4886 8.02587 79.4886 9.41557V17.4765H82.2431V9.39529C82.2431 6.96753 80.9814 5.45948 78.5549 5.45948ZM119.454 16.4216C117.657 16.4216 116.653 14.7005 116.653 11.5897C116.653 8.43162 117.657 6.75789 119.454 6.75789C121.251 6.75789 122.255 8.45529 122.255 11.5897C122.255 14.7478 121.251 16.4216 119.454 16.4216ZM119.454 5.45948C115.789 5.45948 113.761 8.2186 113.761 11.5897C113.761 14.9609 115.792 17.72 119.454 17.72C123.119 17.72 125.147 14.9609 125.147 11.5897C125.147 8.21522 123.119 5.45948 119.454 5.45948ZM144.907 5.45948C143.18 5.45948 142.223 6.2135 141.687 7.18055H141.547V5.69617H138.792V17.4833H141.547V9.86528C141.547 8.12054 142.434 7.10616 143.856 7.10616C145.232 7.10616 145.841 8.02587 145.841 9.41557V17.4765H148.595V9.39529C148.595 6.96753 147.333 5.45948 144.907 5.45948ZM154.847 5.45948C152.304 5.45948 150.389 6.54487 150.389 8.85428C150.389 10.812 151.718 11.8704 153.214 12.2491L155.547 12.8374C156.782 13.1451 157.344 13.5915 157.344 14.5822C157.344 15.7859 156.504 16.4689 155.035 16.4689C153.448 16.4689 152.632 15.6912 152.374 13.7335L149.901 14.4402C150.041 16.4689 151.909 17.7166 154.73 17.7166C157.88 17.7166 159.583 16.2322 159.583 13.8755C159.583 11.6607 158.067 10.741 156.481 10.3387L154.241 9.77399C153.12 9.48996 152.632 8.97263 152.632 8.2186C152.632 7.27523 153.425 6.71055 154.616 6.71055C156.015 6.71055 156.879 7.48825 156.996 8.97263L159.329 8.26594C159.048 6.6125 157.438 5.45948 154.847 5.45948ZM166.417 16.4216C164.62 16.4216 163.616 14.7005 163.616 11.5897C163.616 8.43162 164.62 6.75789 166.417 6.75789C168.215 6.75789 169.219 8.45529 169.219 11.5897C169.219 14.7478 168.215 16.4216 166.417 16.4216ZM166.417 5.45948C162.753 5.45948 160.724 8.2186 160.724 11.5897C160.724 14.9609 162.753 17.72 166.417 17.72C170.082 17.72 172.11 14.9609 172.11 11.5897C172.11 8.21522 170.082 5.45948 166.417 5.45948ZM179.859 5.45948C178.132 5.45948 177.174 6.2135 176.639 7.18055H176.498V5.69617H173.744V17.4833H176.498V9.86528C176.498 8.12054 177.385 7.10616 178.808 7.10616C180.183 7.10616 180.792 8.02587 180.792 9.41557V17.4765H183.547V9.39529C183.543 6.96753 182.285 5.45948 179.859 5.45948ZM10.8272 0.979289H7.93213V13.1688C7.93213 15.1502 7.18577 16.3269 5.41192 16.3269C3.6615 16.3269 2.89171 15.0792 2.89171 12.9321V10.67L0 11.4004V12.4148C0 15.5019 1.51614 17.862 5.41527 17.862C9.31105 17.862 10.8272 15.5053 10.8272 12.4148V0.979289ZM28.231 0.979289H25.4765V17.4799H28.231V9.86528C28.231 8.12054 29.1179 7.10616 30.5404 7.10616C31.9159 7.10616 32.5251 8.02587 32.5251 9.41557V17.4765H35.2796V9.39529C35.2796 6.96753 34.0178 5.45948 31.5913 5.45948C29.8643 5.45948 28.9071 6.2135 28.3716 7.18055H28.231V0.979289ZM112.128 0.979289H109.236V13.1688C109.236 15.1502 108.489 16.3269 106.716 16.3269C104.965 16.3269 104.195 15.0792 104.195 12.9321V10.67L101.304 11.4004V12.4148C101.304 15.5019 102.82 17.862 106.719 17.862C110.618 17.862 112.131 15.5053 112.131 12.4148V0.979289M129.531 0.979289H126.777V17.4799H129.531V9.86528C129.531 8.12054 130.418 7.10616 131.841 7.10616C133.216 7.10616 133.825 8.02587 133.825 9.41557V17.4765H136.58V9.39529C136.58 6.96753 135.321 5.45948 132.892 5.45948C131.165 5.45948 130.207 6.2135 129.672 7.18055H129.531V0.979289ZM91.3166 16.1376C89.0775 16.1376 87.6986 14.2981 87.6986 12.3404C87.6986 11.113 88.2341 9.98363 89.121 9.34795L94.3957 15.1705C93.4184 15.7588 92.3206 16.1376 91.3166 16.1376ZM96.4507 13.2364L91.8788 8.14421C92.6955 7.81285 93.4887 7.6945 94.1413 7.6945C96.0323 7.6945 97.197 8.80356 97.197 10.7106C97.197 11.5627 96.9628 12.4351 96.4507 13.2364ZM91.2463 7.4612L90.2422 6.32847C89.3553 5.33775 89.0976 4.72574 89.0976 3.99539C89.0976 2.62935 89.9611 1.85166 91.3132 1.85166C92.6888 1.85166 93.5054 2.65302 93.5054 4.11373C93.5088 5.45948 92.8561 6.73084 91.2463 7.4612ZM91.3868 0.600586C88.1671 0.600586 86.5807 2.41633 86.5807 4.67841C86.5807 5.90243 87.0928 7.12983 88.4483 8.61421L88.4717 8.66155C86.1858 9.77061 85.1348 11.5627 85.1348 13.3987C85.1348 15.8265 86.979 17.8552 89.8238 17.8552C91.4571 17.8552 93.3716 17.1722 95.0985 15.9448L96.4975 17.4765H100.162V17.3582L97.177 14.0344C98.4387 12.5263 99.1617 10.8763 99.1617 9.43586C99.1617 7.64378 97.9702 6.44343 96.1059 6.44343C95.1253 6.44343 94.0275 6.72746 93.3046 7.0081L93.2578 6.91343C95.0316 5.94638 95.778 5.05035 95.778 3.80265C95.7746 2.01734 94.1882 0.600586 91.3868 0.600586ZM21.5573 30.437C21.815 28.3642 22.8626 27.1842 24.7067 27.1842C26.4572 27.1842 27.4847 28.2459 27.5315 30.437H21.5573ZM24.7067 25.5815C21.6276 25.5815 19.4789 27.7725 19.4789 31.8064C19.4789 35.6712 21.4636 37.842 24.7067 37.842C27.3675 37.842 29.0477 36.3102 29.466 34.0008L27.6922 33.5308C27.3876 35.5123 26.34 36.1953 24.8908 36.1953C22.5815 36.1953 21.554 34.4742 21.4837 31.8334H29.4861V31.1741C29.4928 27.0422 27.2738 25.5815 24.7067 25.5815ZM56.6695 30.437C56.9273 28.3642 57.9748 27.1842 59.819 27.1842C61.5694 27.1842 62.5969 28.2459 62.6437 30.437H56.6695ZM59.819 25.5815C56.7398 25.5815 54.5911 27.7725 54.5911 31.8064C54.5911 35.6712 56.5758 37.842 59.819 37.842C62.4797 37.842 64.1599 36.3102 64.5782 34.0008L62.8044 33.5308C62.4998 35.5123 61.4523 36.1953 60.003 36.1953C57.6937 36.1953 56.6662 34.4742 56.5959 31.8334H64.5983V31.1741C64.605 27.0422 62.386 25.5815 59.819 25.5815ZM71.928 25.5815C68.7317 25.5815 66.5596 27.8435 66.5596 31.8301C66.5596 35.7422 68.6815 37.842 71.8343 37.842C74.6825 37.842 76.2924 36.0736 76.617 33.6458L74.7729 33.1961C74.4449 35.4108 73.5111 36.1649 71.9715 36.1649C69.7325 36.1649 68.5878 34.5148 68.5878 31.6847C68.5878 28.7362 69.8027 27.2518 71.8778 27.2518C73.3471 27.2518 74.4215 27.9822 74.7729 30.0819L76.617 29.6322C76.2924 27.2315 74.6825 25.5815 71.928 25.5815ZM16.8014 21.1013H13.7222L8.89269 34.3964L4.0397 21.1013H0.816641V37.6019H2.84486V23.3904L8.04927 37.6053H9.61227L14.7698 23.3667V37.6053H16.8014V21.1013ZM36.6752 36.1682C34.7608 36.1682 33.4789 34.7785 33.4789 31.7117C33.4789 28.6246 34.7608 27.2552 36.6752 27.2552C38.5896 27.2552 39.8715 28.6212 39.8715 31.7117C39.8715 34.7751 38.5896 36.1682 36.6752 36.1682ZM41.7625 21.1013H39.828V28.0802C39.4063 26.7818 38.3821 25.5815 36.3506 25.5815C33.7367 25.5815 31.4507 27.6576 31.4507 31.7827C31.4507 35.9552 33.7367 37.842 36.1866 37.842C38.0307 37.842 39.3829 36.7566 39.828 35.2249V36.1209C39.828 36.6619 39.8749 37.2536 39.9451 37.6053H41.9064C41.8127 37.0406 41.7658 36.2156 41.7658 35.1539V21.1013M56.462 21.1013H43.861V22.8223H49.1591V37.6053H51.1907V22.8223H56.4654V21.1013M80.7705 21.1013H78.8326V37.6019H80.7705V29.8486C80.7705 28.1986 81.5871 27.0895 83.3141 27.0895C85.0177 27.0895 85.8343 28.1986 85.8343 29.8486V37.6053H87.7722V29.4496C87.7722 27.2349 86.4201 25.5848 84.0136 25.5848C82.4038 25.5848 81.2123 26.3152 80.7705 27.6373V21.1013Z" fill="#EB1700"></path>
</svg>
