<?xml version="1.0" encoding="utf-8"?>
<!-- Generator: Adobe Illustrator 27.7.0, SVG Export Plug-In . SVG Version: 6.00 Build 0)  -->
<svg version="1.1" id="Layer_2" xmlns="http://www.w3.org/2000/svg" xmlns:xlink="http://www.w3.org/1999/xlink" x="0px" y="0px"
	 viewBox="0 0 208.5 94" style="enable-background:new 0 0 208.5 94;" xml:space="preserve">
<style type="text/css">
	.st0{fill:#5D5C5B;}
	.st1{fill:#D63F08;}
	.st2{fill-rule:evenodd;clip-rule:evenodd;fill:#5D5C5B;}
</style>
<g>
	<g>
		<path class="st0" d="M16.5,82.1l1.1,5.4h0l1.1-5.4H21v7.6h-1.4v-6.1h0l-1.4,6.1H17l-1.4-6.1h0v6.1h-1.4v-7.6H16.5z"/>
		<path class="st0" d="M27,83.3h-2.7v1.8h2.6v1.3h-2.6v2h2.8v1.3h-4.4v-7.6H27V83.3z"/>
		<path class="st0" d="M30.8,82.1l1.1,5.4h0l1.1-5.4h2.3v7.6h-1.4v-6.1h0l-1.4,6.1h-1.2L30,83.6h0v6.1h-1.4v-7.6H30.8z"/>
		<path class="st0" d="M37,84.3c0.1-0.5,0.2-0.9,0.4-1.3c0.2-0.4,0.4-0.6,0.8-0.8c0.3-0.2,0.8-0.3,1.4-0.3c0.6,0,1,0.1,1.4,0.3
			c0.3,0.2,0.6,0.5,0.8,0.8c0.2,0.3,0.3,0.8,0.4,1.3c0.1,0.5,0.1,1,0.1,1.6c0,0.6,0,1.1-0.1,1.6c-0.1,0.5-0.2,0.9-0.4,1.2
			c-0.2,0.4-0.4,0.6-0.8,0.8c-0.3,0.2-0.8,0.3-1.4,0.3c-0.6,0-1-0.1-1.4-0.3c-0.3-0.2-0.6-0.5-0.8-0.8C37.1,88.4,37,88,37,87.5
			c-0.1-0.5-0.1-1-0.1-1.6C36.9,85.3,36.9,84.8,37,84.3z M38.5,87.2c0,0.4,0.1,0.7,0.2,0.9c0.1,0.2,0.2,0.4,0.3,0.5
			c0.1,0.1,0.3,0.2,0.5,0.2c0.2,0,0.4-0.1,0.6-0.2c0.1-0.1,0.2-0.3,0.3-0.5c0.1-0.2,0.1-0.5,0.1-0.9c0-0.4,0-0.8,0-1.3
			c0-0.5,0-0.9,0-1.3c0-0.4-0.1-0.6-0.1-0.9c-0.1-0.2-0.2-0.4-0.3-0.5c-0.1-0.1-0.3-0.2-0.6-0.2c-0.2,0-0.4,0.1-0.5,0.2
			c-0.1,0.1-0.2,0.3-0.3,0.5c-0.1,0.2-0.1,0.5-0.2,0.9c0,0.4,0,0.8,0,1.3C38.4,86.4,38.4,86.8,38.5,87.2z"/>
		<path class="st0" d="M46.5,82.1c0.6,0,1.1,0.2,1.5,0.5c0.4,0.3,0.5,0.8,0.5,1.5c0,0.5-0.1,0.9-0.3,1.3c-0.2,0.3-0.5,0.5-1,0.6v0
			c0.4,0.1,0.7,0.2,0.8,0.4c0.2,0.2,0.3,0.5,0.3,0.9c0,0.1,0,0.3,0,0.5c0,0.2,0,0.3,0,0.6c0,0.4,0,0.7,0.1,0.9
			c0,0.2,0.1,0.4,0.3,0.4v0.1h-1.7c-0.1-0.1-0.1-0.2-0.1-0.4c0-0.1,0-0.3,0-0.4l0-1.5c0-0.3-0.1-0.5-0.2-0.7
			c-0.1-0.2-0.4-0.3-0.7-0.3h-0.8v3.2h-1.5v-7.6H46.5z M45.8,85.4c0.4,0,0.7-0.1,0.9-0.3c0.2-0.2,0.3-0.5,0.3-0.9
			c0-0.7-0.4-1.1-1.1-1.1h-0.7v2.2H45.8z"/>
		<path class="st0" d="M50.3,82.1h1.5v7.6h-1.5V82.1z"/>
		<path class="st0" d="M57,82.1l2,7.6h-1.6L57,88.1h-2l-0.4,1.6h-1.6l2-7.6H57z M56.8,86.8L56,83.4h0l-0.7,3.4H56.8z"/>
		<path class="st0" d="M60.2,82.1h1.5v6.4h2.7v1.3h-4.3V82.1z"/>
	</g>
	<g>
		<path class="st0" d="M69.8,87.5c0,0.2,0,0.3,0,0.5c0,0.1,0.1,0.3,0.2,0.4c0.1,0.1,0.2,0.2,0.3,0.2c0.1,0.1,0.3,0.1,0.5,0.1
			c0.2,0,0.4-0.1,0.6-0.2c0.2-0.2,0.3-0.4,0.3-0.7c0-0.2,0-0.3-0.1-0.4c0-0.1-0.1-0.2-0.2-0.3c-0.1-0.1-0.2-0.2-0.4-0.3
			c-0.2-0.1-0.4-0.2-0.6-0.3c-0.3-0.1-0.6-0.2-0.9-0.4c-0.2-0.1-0.5-0.3-0.6-0.5c-0.2-0.2-0.3-0.4-0.4-0.6c-0.1-0.2-0.1-0.5-0.1-0.8
			c0-0.8,0.2-1.3,0.6-1.7c0.4-0.4,1-0.6,1.7-0.6c0.3,0,0.7,0,0.9,0.1c0.3,0.1,0.5,0.2,0.7,0.4c0.2,0.2,0.4,0.4,0.5,0.6
			C73,83.3,73,83.6,73,84v0.2h-1.5c0-0.4-0.1-0.6-0.2-0.8C71.3,83.1,71,83,70.7,83c-0.2,0-0.3,0-0.4,0.1c-0.1,0.1-0.2,0.1-0.3,0.2
			c-0.1,0.1-0.1,0.2-0.1,0.3c0,0.1,0,0.2,0,0.3c0,0.2,0,0.4,0.1,0.6c0.1,0.2,0.3,0.3,0.6,0.4l1.2,0.5c0.3,0.1,0.5,0.3,0.7,0.4
			c0.2,0.1,0.3,0.3,0.4,0.4c0.1,0.2,0.2,0.3,0.2,0.5c0,0.2,0.1,0.4,0.1,0.6c0,0.8-0.2,1.4-0.7,1.8c-0.5,0.4-1.1,0.5-1.9,0.5
			c-0.9,0-1.5-0.2-1.9-0.6c-0.4-0.4-0.6-0.9-0.6-1.6v-0.3h1.5V87.5z"/>
		<path class="st0" d="M74.7,82.1h1.5v6.4H79v1.3h-4.3V82.1z"/>
		<path class="st0" d="M80.2,84.3c0-0.5,0.2-0.9,0.4-1.3c0.2-0.4,0.4-0.6,0.8-0.8c0.3-0.2,0.8-0.3,1.4-0.3c0.6,0,1,0.1,1.4,0.3
			c0.3,0.2,0.6,0.5,0.8,0.8c0.2,0.3,0.3,0.8,0.4,1.3c0.1,0.5,0.1,1,0.1,1.6c0,0.6,0,1.1-0.1,1.6c-0.1,0.5-0.2,0.9-0.4,1.2
			c-0.2,0.4-0.4,0.6-0.8,0.8c-0.3,0.2-0.8,0.3-1.4,0.3c-0.6,0-1-0.1-1.4-0.3c-0.3-0.2-0.6-0.5-0.8-0.8c-0.2-0.3-0.3-0.8-0.4-1.2
			c-0.1-0.5-0.1-1-0.1-1.6C80.1,85.3,80.2,84.8,80.2,84.3z M81.7,87.2c0,0.4,0.1,0.7,0.1,0.9c0.1,0.2,0.2,0.4,0.3,0.5
			c0.1,0.1,0.3,0.2,0.6,0.2c0.2,0,0.4-0.1,0.5-0.2c0.1-0.1,0.2-0.3,0.3-0.5c0.1-0.2,0.1-0.5,0.1-0.9c0-0.4,0-0.8,0-1.3
			c0-0.5,0-0.9,0-1.3c0-0.4-0.1-0.6-0.1-0.9c-0.1-0.2-0.2-0.4-0.3-0.5C83.1,83.1,83,83,82.7,83c-0.2,0-0.4,0.1-0.6,0.2
			c-0.1,0.1-0.2,0.3-0.3,0.5c-0.1,0.2-0.1,0.5-0.1,0.9c0,0.4,0,0.8,0,1.3C81.7,86.4,81.7,86.8,81.7,87.2z"/>
		<path class="st0" d="M90.3,82.1l2,7.6h-1.6l-0.4-1.6h-2l-0.4,1.6h-1.6l2-7.6H90.3z M90,86.8l-0.7-3.4h0l-0.7,3.4H90z"/>
		<path class="st0" d="M97.1,87.3L97.1,87.3l0-5.2h1.4v7.6h-1.8l-1.9-5.3h0v5.3h-1.4v-7.6h1.8L97.1,87.3z"/>
	</g>
	<g>
		<path class="st0" d="M104.7,85.1L104.7,85.1l2-3.1h1.7l-2.1,3.3l2.3,4.4h-1.7l-1.6-3.1l-0.6,0.9v2.3h-1.5v-7.6h1.5V85.1z"/>
		<path class="st0" d="M113.8,83.3H111v1.8h2.6v1.3H111v2h2.8v1.3h-4.4v-7.6h4.3V83.3z"/>
		<path class="st0" d="M119.7,83.3h-1.7v6.4h-1.5v-6.4h-1.7v-1.3h4.9V83.3z"/>
		<path class="st0" d="M125.5,83.3h-1.7v6.4h-1.5v-6.4h-1.7v-1.3h4.9V83.3z"/>
		<path class="st0" d="M131.1,83.3h-2.7v1.8h2.6v1.3h-2.6v2h2.8v1.3h-4.4v-7.6h4.3V83.3z"/>
		<path class="st0" d="M135.4,82.1c0.6,0,1.1,0.2,1.5,0.5c0.4,0.3,0.5,0.8,0.5,1.5c0,0.5-0.1,0.9-0.3,1.3c-0.2,0.3-0.5,0.5-1,0.6v0
			c0.4,0.1,0.7,0.2,0.8,0.4c0.2,0.2,0.3,0.5,0.3,0.9c0,0.1,0,0.3,0,0.5c0,0.2,0,0.3,0,0.6c0,0.4,0,0.7,0.1,0.9
			c0,0.2,0.1,0.4,0.3,0.4v0.1h-1.7c-0.1-0.1-0.1-0.2-0.2-0.4c0-0.1,0-0.3,0-0.4l0-1.5c0-0.3-0.1-0.5-0.2-0.7
			c-0.1-0.2-0.4-0.3-0.7-0.3h-0.8v3.2h-1.5v-7.6H135.4z M134.8,85.4c0.4,0,0.7-0.1,0.9-0.3c0.2-0.2,0.3-0.5,0.3-0.9
			c0-0.7-0.4-1.1-1.1-1.1h-0.7v2.2H134.8z"/>
		<path class="st0" d="M139.2,82.1h1.5v7.6h-1.5V82.1z"/>
		<path class="st0" d="M146.2,87.3L146.2,87.3l0-5.2h1.4v7.6h-1.8l-1.9-5.3h0v5.3h-1.4v-7.6h1.8L146.2,87.3z"/>
		<path class="st0" d="M152.7,83.9c0-0.1-0.1-0.3-0.2-0.4c-0.1-0.1-0.2-0.2-0.3-0.3c-0.1-0.1-0.2-0.1-0.4-0.1
			c-0.4,0-0.6,0.2-0.8,0.6c-0.2,0.4-0.2,1.1-0.2,2c0,0.5,0,0.9,0,1.2c0,0.4,0.1,0.7,0.2,0.9c0.1,0.3,0.2,0.5,0.3,0.6
			c0.1,0.1,0.3,0.2,0.5,0.2c0.1,0,0.2,0,0.3-0.1c0.1,0,0.2-0.1,0.3-0.2c0.1-0.1,0.2-0.2,0.2-0.4c0.1-0.2,0.1-0.3,0.1-0.5v-0.8h-1
			v-1.1h2.5v4.1h-1.1V89h0c-0.2,0.3-0.4,0.5-0.7,0.6c-0.3,0.1-0.6,0.2-0.9,0.2c-0.5,0-0.9-0.1-1.1-0.2c-0.3-0.2-0.5-0.4-0.7-0.8
			c-0.2-0.3-0.3-0.8-0.3-1.3c-0.1-0.5-0.1-1.1-0.1-1.7c0-0.6,0-1.2,0.1-1.7c0.1-0.5,0.2-0.9,0.4-1.2c0.2-0.3,0.5-0.6,0.8-0.7
			c0.3-0.2,0.7-0.2,1.2-0.2c0.8,0,1.4,0.2,1.8,0.6c0.4,0.4,0.6,1,0.6,1.8h-1.5C152.7,84.2,152.7,84,152.7,83.9z"/>
	</g>
	<path class="st1" d="M160.4,81.9v7.9h-1.3v-7.9H160.4z"/>
	<path class="st0" d="M169.2,83.3h-2.7v1.8h2.6v1.3h-2.6v2h2.8v1.3h-4.4v-7.6h4.3V83.3z"/>
	<path class="st0" d="M173.9,89.7c-0.3,0.1-0.6,0.1-1,0.1c-0.6,0-1-0.1-1.4-0.3c-0.3-0.2-0.6-0.5-0.8-0.8c-0.2-0.3-0.3-0.8-0.4-1.2
		c-0.1-0.5-0.1-1-0.1-1.6c0-0.6,0-1.1,0.1-1.6c0.1-0.5,0.2-0.9,0.4-1.3c0.2-0.4,0.4-0.6,0.8-0.8c0.3-0.2,0.8-0.3,1.4-0.3
		c0.6,0,1,0.1,1.4,0.3c0.3,0.2,0.6,0.5,0.8,0.8c0.2,0.3,0.3,0.8,0.4,1.3c0.1,0.5,0.1,1,0.1,1.6c0,0.7,0,1.2-0.1,1.8
		c-0.1,0.5-0.2,1-0.5,1.3l0.8,0.8l-0.9,0.8L173.9,89.7z M171.9,87.2c0,0.4,0.1,0.7,0.1,0.9c0.1,0.2,0.2,0.4,0.3,0.5
		c0.1,0.1,0.3,0.2,0.5,0.2c0.2,0,0.4-0.1,0.5-0.2c0.1-0.1,0.3-0.3,0.3-0.5c0.1-0.2,0.1-0.5,0.1-0.9c0-0.4,0-0.8,0-1.3
		c0-0.5,0-0.9,0-1.3c0-0.4-0.1-0.6-0.1-0.9c-0.1-0.2-0.2-0.4-0.3-0.5c-0.1-0.1-0.3-0.2-0.5-0.2c-0.2,0-0.4,0.1-0.5,0.2
		c-0.1,0.1-0.2,0.3-0.3,0.5c-0.1,0.2-0.1,0.5-0.1,0.9c0,0.4,0,0.8,0,1.3C171.8,86.4,171.8,86.8,171.9,87.2z"/>
	<path class="st0" d="M178.3,87.4c0,0.2,0,0.4,0,0.5c0,0.2,0.1,0.3,0.1,0.4c0.1,0.1,0.2,0.2,0.3,0.3c0.1,0.1,0.3,0.1,0.4,0.1
		c0.2,0,0.3,0,0.4-0.1c0.1-0.1,0.2-0.2,0.3-0.3c0.1-0.1,0.1-0.3,0.1-0.4c0-0.2,0-0.3,0-0.5v-5.3h1.5v5.3c0,0.5-0.1,0.9-0.2,1.2
		c-0.1,0.3-0.3,0.6-0.5,0.8c-0.2,0.2-0.5,0.3-0.8,0.4c-0.3,0.1-0.6,0.1-0.9,0.1c-0.3,0-0.6,0-0.9-0.1c-0.3-0.1-0.5-0.2-0.8-0.3
		c-0.2-0.2-0.4-0.4-0.5-0.7c-0.1-0.3-0.2-0.7-0.2-1.2v-5.3h1.5V87.4z"/>
	<path class="st0" d="M183.1,82.1h1.5v7.6h-1.5V82.1z"/>
	<path class="st0" d="M189.8,87.3L189.8,87.3l0-5.2h1.4v7.6h-1.8l-1.9-5.3h0v5.3h-1.4v-7.6h1.8L189.8,87.3z"/>
	<path class="st0" d="M192.7,84.3c0.1-0.5,0.2-0.9,0.3-1.3c0.2-0.4,0.4-0.6,0.8-0.8c0.3-0.2,0.8-0.3,1.4-0.3c0.6,0,1,0.1,1.4,0.3
		c0.3,0.2,0.6,0.5,0.8,0.8c0.2,0.3,0.3,0.8,0.4,1.3c0.1,0.5,0.1,1,0.1,1.6c0,0.6,0,1.1-0.1,1.6c0,0.5-0.2,0.9-0.4,1.2
		c-0.2,0.4-0.4,0.6-0.8,0.8c-0.3,0.2-0.8,0.3-1.4,0.3c-0.6,0-1-0.1-1.4-0.3c-0.3-0.2-0.6-0.5-0.8-0.8c-0.2-0.3-0.3-0.8-0.3-1.2
		c-0.1-0.5-0.1-1-0.1-1.6C192.6,85.3,192.6,84.8,192.7,84.3z M194.1,87.2c0,0.4,0.1,0.7,0.2,0.9c0.1,0.2,0.2,0.4,0.3,0.5
		c0.1,0.1,0.3,0.2,0.6,0.2c0.2,0,0.4-0.1,0.5-0.2c0.1-0.1,0.2-0.3,0.3-0.5c0.1-0.2,0.1-0.5,0.1-0.9c0-0.4,0-0.8,0-1.3
		c0-0.5,0-0.9,0-1.3c0-0.4-0.1-0.6-0.1-0.9c-0.1-0.2-0.2-0.4-0.3-0.5c-0.1-0.1-0.3-0.2-0.5-0.2c-0.2,0-0.4,0.1-0.6,0.2
		c-0.1,0.1-0.2,0.3-0.3,0.5c-0.1,0.2-0.1,0.5-0.2,0.9c0,0.4,0,0.8,0,1.3C194.1,86.4,194.1,86.8,194.1,87.2z"/>
	<path class="st0" d="M200.2,82.1l1,2.5l1-2.5h1.7l-1.8,3.8l1.9,3.9h-1.7l-1.1-2.6l-1.1,2.6h-1.7l1.9-3.9l-1.7-3.8H200.2z"/>
	<g>
		<path class="st1" d="M83,5.3h9l8.6,14.5l8.5-14.5h9l-13.6,22.6V42h-8.1V27.7L83,5.3z"/>
		<path class="st1" d="M137.7,15.1c-0.5-0.8-1.1-1.5-1.8-2c-0.7-0.6-1.5-1-2.4-1.4c-0.9-0.3-1.9-0.5-2.9-0.5c-1.8,0-3.4,0.4-4.6,1.1
			c-1.3,0.7-2.3,1.6-3.1,2.8c-0.8,1.2-1.4,2.5-1.7,4c-0.4,1.5-0.5,3.1-0.5,4.7c0,1.5,0.2,3,0.5,4.5c0.4,1.5,0.9,2.8,1.7,3.9
			c0.8,1.2,1.8,2.1,3.1,2.8c1.3,0.7,2.8,1.1,4.6,1.1c2.5,0,4.4-0.8,5.8-2.3c1.4-1.5,2.2-3.5,2.6-6h7.8c-0.2,2.3-0.7,4.4-1.6,6.2
			c-0.9,1.9-2,3.4-3.4,4.7c-1.4,1.3-3,2.3-4.9,3c-1.9,0.7-4,1-6.2,1c-2.8,0-5.3-0.5-7.6-1.5c-2.2-1-4.1-2.3-5.7-4
			c-1.5-1.7-2.7-3.7-3.5-6c-0.8-2.3-1.2-4.8-1.2-7.5c0-2.7,0.4-5.3,1.2-7.6c0.8-2.3,2-4.4,3.5-6.1c1.5-1.7,3.4-3.1,5.7-4.1
			c2.2-1,4.8-1.5,7.6-1.5c2,0,3.9,0.3,5.7,0.9c1.8,0.6,3.4,1.4,4.8,2.5c1.4,1.1,2.6,2.5,3.5,4.1c0.9,1.6,1.5,3.5,1.8,5.7h-7.8
			C138.5,16.7,138.2,15.8,137.7,15.1z"/>
		<path class="st1" d="M156.6,5.3v30h17.9V42h-26V5.3H156.6z"/>
		<path class="st1" d="M203.8,5.3v6.8h-19.4v7.9h17.8v6.3h-17.8v9h19.8V42h-27.9V5.3H203.8z"/>
		<g>
			<path class="st1" d="M61.7,19.5c0-0.1,0-0.3,0.1-0.4c0.4-1.5,0.9-2.9,1.7-4c0.8-1.2,1.8-2.1,3.1-2.8c1.3-0.7,2.8-1.1,4.6-1.1
				c1,0,2,0.2,2.8,0.5c0.9,0.3,1.7,0.8,2.4,1.4c0.7,0.6,1.3,1.3,1.8,2c0.5,0.8,0.8,1.6,0.9,2.5h7.8c-0.2-2.1-0.8-4-1.7-5.7
				c-0.9-1.6-2.1-3-3.5-4.1c-1.4-1.1-3-2-4.8-2.5c-1.8-0.6-3.7-0.9-5.7-0.9c-2.8,0-5.3,0.5-7.6,1.5c-2.3,1-4.1,2.4-5.7,4.1
				c-0.8,0.9-1.5,2-2.2,3.1L61.7,19.5z"/>
			<path class="st1" d="M79.6,27.9c-0.3,2.5-1.2,4.5-2.6,6c-1.4,1.5-3.3,2.3-5.8,2.3c-1.8,0-3.4-0.3-4.6-1.1
				c-1.3-0.7-2.3-1.6-3.1-2.8c-0.6-0.8-1-1.7-1.3-2.7l-6,5.5c0.5,0.8,1.1,1.6,1.7,2.3c1.5,1.7,3.4,3.1,5.7,4c2.2,1,4.8,1.5,7.6,1.5
				c2.3,0,4.3-0.3,6.2-1c1.9-0.7,3.5-1.7,4.9-3c1.4-1.3,2.5-2.9,3.4-4.7c0.9-1.9,1.4-3.9,1.6-6.2H79.6z"/>
		</g>
	</g>
	<g>
		<g>
			<path class="st1" d="M67.5,46.7V48h-8.3v5.6h7.4v1.3h-7.4v7.4h-1.5V46.7H67.5z"/>
			<path class="st1" d="M68.5,51.4c0.3-1,0.8-1.8,1.4-2.6c0.6-0.7,1.4-1.3,2.3-1.8c0.9-0.4,2-0.7,3.2-0.7c1.2,0,2.3,0.2,3.2,0.7
				c0.9,0.4,1.7,1,2.3,1.8c0.6,0.7,1.1,1.6,1.4,2.6c0.3,1,0.5,2,0.5,3.1c0,1.1-0.1,2.1-0.5,3.1c-0.3,1-0.8,1.8-1.4,2.6
				c-0.6,0.7-1.4,1.3-2.3,1.8c-0.9,0.4-2,0.7-3.2,0.7c-1.2,0-2.3-0.2-3.2-0.7c-0.9-0.4-1.7-1-2.3-1.8c-0.6-0.7-1.1-1.6-1.4-2.6
				c-0.3-1-0.5-2-0.5-3.1C68,53.4,68.2,52.4,68.5,51.4z M69.8,57c0.2,0.8,0.6,1.5,1,2.2c0.5,0.6,1.1,1.2,1.8,1.5
				c0.7,0.4,1.6,0.6,2.6,0.6c1,0,1.9-0.2,2.6-0.6c0.7-0.4,1.3-0.9,1.8-1.5c0.5-0.6,0.8-1.4,1-2.2c0.2-0.8,0.3-1.6,0.3-2.5
				c0-0.9-0.1-1.7-0.3-2.5c-0.2-0.8-0.6-1.5-1-2.2c-0.5-0.6-1.1-1.2-1.8-1.6c-0.7-0.4-1.6-0.6-2.6-0.6c-1,0-1.9,0.2-2.6,0.6
				c-0.7,0.4-1.3,0.9-1.8,1.6c-0.5,0.6-0.8,1.4-1,2.2c-0.2,0.8-0.3,1.6-0.3,2.5C69.5,55.3,69.6,56.1,69.8,57z"/>
			<path class="st1" d="M91.6,46.7c0.6,0,1.2,0.1,1.8,0.2c0.6,0.2,1.1,0.4,1.5,0.7c0.4,0.3,0.8,0.7,1,1.3c0.2,0.5,0.4,1.1,0.4,1.8
				c0,1-0.3,1.8-0.8,2.6c-0.5,0.7-1.3,1.2-2.3,1.4v0c0.5,0.1,0.9,0.2,1.3,0.4c0.3,0.2,0.6,0.4,0.8,0.7c0.2,0.3,0.4,0.7,0.5,1.1
				c0.1,0.4,0.2,0.8,0.2,1.3c0,0.3,0,0.6,0,1c0,0.4,0,0.8,0.1,1.1c0,0.4,0.1,0.7,0.2,1.1c0.1,0.3,0.2,0.6,0.4,0.8h-1.6
				c-0.1-0.1-0.2-0.3-0.2-0.5c0-0.2-0.1-0.4-0.1-0.7c0-0.2,0-0.4-0.1-0.7c0-0.2,0-0.4,0-0.6c0-0.6-0.1-1.1-0.1-1.6
				c-0.1-0.5-0.2-1-0.4-1.5c-0.2-0.4-0.5-0.8-0.9-1c-0.4-0.3-0.9-0.4-1.6-0.3H86v6.9h-1.5V46.7H91.6z M91.5,54.1
				c0.4,0,0.9-0.1,1.3-0.2c0.4-0.1,0.8-0.3,1.1-0.6c0.3-0.3,0.5-0.6,0.7-0.9c0.2-0.4,0.3-0.8,0.3-1.3c0-1-0.3-1.7-0.8-2.3
				c-0.5-0.6-1.4-0.8-2.5-0.8H86v6.1H91.5z"/>
		</g>
		<g>
			<path class="st0" d="M103.7,58.3c0.2,0.4,0.4,0.7,0.8,0.9c0.3,0.2,0.7,0.4,1.1,0.5c0.4,0.1,0.9,0.2,1.3,0.2c0.3,0,0.6,0,1-0.1
				c0.4-0.1,0.7-0.2,1-0.3c0.3-0.1,0.6-0.4,0.8-0.6c0.2-0.3,0.3-0.6,0.3-1c0-0.4-0.1-0.8-0.4-1c-0.3-0.3-0.6-0.5-1.1-0.7
				c-0.4-0.2-0.9-0.3-1.5-0.5c-0.6-0.1-1.1-0.3-1.7-0.4c-0.6-0.1-1.2-0.3-1.7-0.5c-0.6-0.2-1.1-0.5-1.5-0.8
				c-0.4-0.3-0.8-0.8-1.1-1.3c-0.3-0.5-0.4-1.1-0.4-1.9c0-0.8,0.2-1.5,0.5-2.1c0.4-0.6,0.8-1.1,1.4-1.5c0.6-0.4,1.2-0.7,1.9-0.9
				c0.7-0.2,1.4-0.3,2.1-0.3c0.8,0,1.6,0.1,2.4,0.3c0.8,0.2,1.4,0.5,2,0.9c0.6,0.4,1.1,1,1.4,1.6c0.4,0.6,0.5,1.4,0.5,2.3h-3.4
				c0-0.5-0.1-0.9-0.3-1.2c-0.2-0.3-0.4-0.6-0.7-0.7c-0.3-0.2-0.6-0.3-1-0.4c-0.4-0.1-0.8-0.1-1.2-0.1c-0.3,0-0.6,0-0.8,0.1
				c-0.3,0.1-0.5,0.2-0.8,0.3c-0.2,0.1-0.4,0.3-0.6,0.6c-0.1,0.2-0.2,0.5-0.2,0.9c0,0.3,0.1,0.6,0.2,0.7c0.1,0.2,0.3,0.4,0.7,0.5
				c0.4,0.2,0.8,0.3,1.4,0.5c0.6,0.2,1.4,0.4,2.4,0.6c0.3,0.1,0.7,0.2,1.2,0.3c0.5,0.2,1,0.4,1.6,0.7c0.5,0.3,1,0.8,1.3,1.4
				c0.4,0.6,0.6,1.3,0.6,2.2c0,0.7-0.1,1.4-0.4,2c-0.3,0.6-0.7,1.2-1.2,1.6c-0.6,0.5-1.2,0.8-2.1,1c-0.8,0.3-1.8,0.4-2.9,0.4
				c-0.9,0-1.7-0.1-2.5-0.3c-0.8-0.2-1.6-0.6-2.2-1c-0.6-0.5-1.1-1-1.5-1.8c-0.4-0.7-0.5-1.6-0.5-2.5h3.4
				C103.4,57.4,103.5,57.9,103.7,58.3z"/>
			<path class="st0" d="M126.6,61c-1.2,1-2.9,1.6-5,1.6c-2.1,0-3.8-0.5-5-1.5c-1.2-1-1.8-2.6-1.8-4.8v-9.9h3.5v9.9
				c0,0.4,0,0.9,0.1,1.3c0.1,0.4,0.2,0.8,0.5,1.1c0.2,0.3,0.6,0.6,1,0.8c0.4,0.2,1,0.3,1.7,0.3c1.2,0,2.1-0.3,2.6-0.8
				c0.5-0.5,0.7-1.4,0.7-2.6v-9.9h3.5v9.9C128.5,58.3,127.8,59.9,126.6,61z"/>
			<path class="st0" d="M139.5,46.3c0.7,0,1.3,0.1,1.9,0.3c0.6,0.2,1.1,0.5,1.5,0.9c0.4,0.4,0.7,0.9,0.9,1.4
				c0.2,0.5,0.3,1.1,0.3,1.7c0,0.9-0.2,1.7-0.6,2.4c-0.4,0.7-1,1.2-1.9,1.6v0c0.4,0.1,0.8,0.3,1.1,0.5c0.3,0.3,0.5,0.5,0.7,0.9
				c0.2,0.3,0.3,0.7,0.4,1.1c0.1,0.4,0.1,0.8,0.2,1.2c0,0.3,0,0.5,0,0.9c0,0.3,0,0.7,0.1,1c0,0.4,0.1,0.7,0.2,1
				c0.1,0.3,0.2,0.6,0.4,0.8h-3.5c-0.2-0.5-0.3-1.1-0.4-1.8c0-0.7-0.1-1.4-0.2-2c-0.1-0.8-0.4-1.4-0.8-1.8c-0.4-0.4-1-0.6-1.9-0.6
				h-3.5v6.2H131V46.3H139.5z M138.3,53.5c0.8,0,1.4-0.2,1.8-0.5c0.4-0.4,0.6-0.9,0.6-1.7c0-0.8-0.2-1.3-0.6-1.7
				c-0.4-0.3-1-0.5-1.8-0.5h-3.8v4.5H138.3z"/>
			<path class="st0" d="M149.6,62.2l-5.1-15.8h3.6l3.5,11.1h0l3.6-11.1h3.6l-5.3,15.8H149.6z"/>
			<path class="st0" d="M163.2,46.3v15.8h-3.5V46.3H163.2z"/>
			<path class="st0" d="M169.3,62.2l-5.1-15.8h3.6l3.5,11.1h0l3.6-11.1h3.6l-5.3,15.8H169.3z"/>
			<path class="st0" d="M186.2,46.3l5.9,15.8h-3.6l-1.2-3.5h-5.9l-1.3,3.5h-3.5l6-15.8H186.2z M186.4,56l-2-5.8h-0.1l-2.1,5.8H186.4
				z"/>
			<path class="st0" d="M196.6,46.3v12.9h7.7v2.9h-11.2V46.3H196.6z"/>
		</g>
	</g>
	<path class="st2" d="M28.3,25c0-0.4-0.1-0.7-0.3-1L11.2,5.8c-0.3-0.3-0.6-0.4-1-0.4c-0.3,0-0.6,0.1-0.9,0.4L5.4,9.3
		c-0.5,0.5-0.6,1.3-0.1,1.9l12.3,13.4L4.3,36.9c-0.5,0.5-0.6,1.3-0.1,1.8l3.6,3.9c0.3,0.3,0.6,0.4,1,0.4c0.3,0,0.6-0.1,0.9-0.4
		L27.9,26C28.2,25.8,28.3,25.4,28.3,25z"/>
	<path class="st2" d="M45.2,25c0-0.4-0.1-0.7-0.3-1L28.1,5.8c-0.3-0.3-0.6-0.4-1-0.4c-0.3,0-0.6,0.1-0.9,0.4l-3.9,3.6
		c-0.5,0.5-0.6,1.3-0.1,1.9l12.3,13.4L21.1,36.9c-0.5,0.5-0.6,1.3-0.1,1.8l3.6,3.9c0.3,0.3,0.6,0.4,1,0.4c0.3,0,0.6-0.1,0.9-0.4
		L44.8,26C45.1,25.8,45.2,25.4,45.2,25z"/>
	<path class="st2" d="M61.9,25c0-0.4-0.1-0.7-0.3-1L44.9,5.8c-0.3-0.3-0.6-0.4-1-0.4c-0.3,0-0.6,0.1-0.9,0.4l-3.9,3.6
		c-0.5,0.5-0.6,1.3-0.1,1.9l12.3,13.4L37.9,36.9c-0.5,0.5-0.6,1.3-0.1,1.8l3.6,3.9c0.3,0.3,0.6,0.4,1,0.4c0.3,0,0.6-0.1,0.9-0.4
		L61.5,26C61.8,25.8,62,25.4,61.9,25z"/>
</g>
</svg>
